<?xml version="1.0" encoding="UTF-8" standalone="no"?>
<svg width="100px" height="100px" viewBox="0 0 100 100" version="1.1" xmlns="http://www.w3.org/2000/svg" xmlns:xlink="http://www.w3.org/1999/xlink">
    <!-- Generator: Sketch 3.8.1 (29687) - http://www.bohemiancoding.com/sketch -->
    <title>birdnest</title>
    <desc>Created with Sketch.</desc>
    <defs></defs>
    <g id="Page-1" stroke="none" stroke-width="1" fill="none" fill-rule="evenodd" stroke-linecap="round" stroke-linejoin="bevel">
        <g id="birdnest" stroke="#000000">
            <path d="M59.7139517,23.214039 C27.6669823,11.4937217 2.82742348,52.1623245 26.7146054,71.7087259 C58.7144274,97.8935378 104.256347,48.1021774 69.449496,24.0067211 C26.771641,-5.5375312 -6.968866,70.8726741 43.4984114,78.4821934 C49.4520052,79.3798837 55.5688032,79.3646675 61.5513743,78.6977901 C111.210205,73.1623187 61.8707096,-10.7180618 31.439835,28.1135967 C28.2230443,32.2184185 25.7225737,36.961459 23.8939043,41.8769389 C19.5989079,53.4219278 17.1655572,64.8564228 20.0856405,77.0402885 C20.6258575,79.2943101 22.4175647,81.1088101 24.1056948,82.6612048 C25.7809405,84.2017509 27.7250685,85.8138091 29.9588876,86.119669 C37.4156959,87.140673 45.03007,87.2179252 52.5252895,86.5524836 C64.3301649,85.5044215 84.0496323,83.6763602 93.0034606,72.7891414 C100.19268,64.0475614 91.3305487,47.7669352 87.2914616,41.084256 C76.8244062,23.7664882 55.3483591,7.47943089 33.9075518,19.8277097 C-3.42482415,41.3283267 25.6530059,107.556995 66.7699886,92.0283178 C101.656577,78.8526775 113.288343,31.3178619 73.3283566,16.5848422 C65.8508559,13.8279302 39.5933048,12.4544236 32.4075662,14.7406642 C-1.43611368,25.5084918 -5.21852532,78.9069657 40.1137288,84.5343032 C68.168395,88.0168803 87.1664208,59.904918 93.9910233,36.1125617 C96.1050056,28.7426644 93.5272786,22.4448454 87.2914609,17.3053883 C72.6048995,5.20096914 50.1754673,-2.40549827 32.4075662,7.68054708 C14.007757,18.1252984 -6.40112185,40.5148909 8.30945145,60.6119755 C24.9909986,83.4017375 60.1368384,81.6322578 77.6300051,60.8275723 C84.2706911,52.9297808 94.7351463,33.2473891 85.881111,23.2140381 C59.7083457,-6.44481608 -8.88120791,22.7399465 13.4566757,61.3325226 C18.5030739,70.0510525 32.2317279,85.234312 44.6977646,80.4995633 C67.505696,71.8368402 94.9682478,28.6048242 53.3716585,23.6460422 C43.4005792,22.4573773 33.2762828,20.0962486 23.3299227,21.4844008 C18.1892024,22.2018594 13.6168469,25.8964792 10.0013962,29.6989625 C-3.78767937,44.2013672 1.0534583,65.3635225 13.4566761,77.0402906 C16.2496621,79.6696929 21.554716,82.6612052 23.329923,84.5343009 L33.9075518,87.5607633 C44.463394,75.2049258 75.6789098,78.2470509 84.2676932,64.3911844 C86.5796274,60.6614536 85.3618763,34.9271829 82.9208699,31.2843293 L66.7699885,12.9821062 C59.1477885,1.60706076 39.7528741,21.4882364 31.8713483,31.2843284 C14.9546125,52.3104472 30.8384299,90.99853 55.4245197,95.2711852 C61.0563473,96.2499036 68.1848462,94.4303129 73.2387244,91.8127249 C87.2914582,84.5343009 96.799741,66.5098317 84.2676954,54.1983763 C78.0604668,48.100408 77.4525778,28.3775995 69.4494973,25.8076833 C67.2039227,25.0865936 46.8171323,11.9356175 44.6977654,12.9821062 L26.8645249,25.8076833 C11.422562,33.4325264 15.4489434,91.7689002 39.2760852,95.1269137 C44.5671809,95.8725999 50.0880242,97.1108877 55.2841192,95.8474609 C76.648226,90.6527932 90.9037814,41.403783 62.1946782,25.8076837 C59.772758,24.4919857 57.0983603,23.4729297 54.3671534,23.2140381 C50.1486665,22.814167 46.017811,20.8238683 41.9376431,21.9893501 C37.0794063,23.3770838 28.729104,35.1240874 26.8645245,38.3463389 C23.780225,43.6764356 21.1437875,49.3527314 19.3891907,55.2796023 C12.1219117,79.8278199 37.5158152,91.1276553 57.5408387,88.5698535 C75.200206,86.3142177 90.5265071,67.3257466 93.5761676,50.5956406 C94.6352636,44.7855552 92.8019592,38.0133487 89.4863097,33.3016983 C85.7302352,27.964189 76.8724189,23.5984499 71.2921531,21.9893511 C41.0770929,13.2766806 27.5023157,32.2114323 17.5980931,60.467704 C14.0407333,70.6166806 9.64019224,83.321749 18.6562526,91.812721 C20.6007901,93.6440101 22.8896319,95.4637688 25.4962148,95.9195966 C70.8716047,103.854647 87.585847,53.1104768 70.9114061,17.3053894 C64.7183847,4.00709215 42.3099757,3.82373511 32.407567,12.9821064 C27.2504532,17.7517302 22.6759706,23.1777072 18.3738652,28.7628186 C10.6301956,38.8158634 8.16157563,48.7961397 9.27718354,61.5481194 C11.5457848,87.4794142 54.6759655,96.1502234 73.2387224,86.1918048 C90.7939162,76.7739166 85.5828155,49.2817352 85.7906836,34.9478527" id="Path-1"></path>
        </g>
    </g>
</svg>